<?xml version="1.0" standalone="no"?>
<!DOCTYPE svg PUBLIC "-//W3C//DTD SVG 20010904//EN"
 "http://www.w3.org/TR/2001/REC-SVG-20010904/DTD/svg10.dtd">
<svg version="1.0" xmlns="http://www.w3.org/2000/svg"
 width="512.000000pt" height="512.000000pt" viewBox="0 0 512.000000 512.000000"
 preserveAspectRatio="xMidYMid meet">
<metadata>
Created by potrace 1.14, written by Peter Selinger 2001-2017
</metadata>
<g transform="translate(0.000000,512.000000) scale(0.100000,-0.100000)"
fill="#000000" stroke="none">
<path d="M160 4480 l0 -480 2400 0 2400 0 0 480 0 480 -2400 0 -2400 0 0 -480z"/>
<path d="M160 1965 l0 -1805 1855 0 1855 0 0 510 0 510 545 0 545 0 0 1295 0
1295 -2400 0 -2400 0 0 -1805z m1842 1269 c62 -32 93 -120 65 -184 -19 -45
-696 -737 -750 -767 -47 -27 -84 -29 -130 -7 -39 19 -416 413 -441 461 -48 95
24 213 131 213 24 0 54 -5 66 -11 12 -5 86 -76 165 -157 l142 -147 295 299
c308 311 334 332 400 319 17 -3 42 -12 57 -19z m2314 -400 c51 -38 69 -71 69
-129 0 -58 -18 -91 -69 -129 -27 -21 -33 -21 -1051 -21 -1023 0 -1024 0 -1052
21 -89 66 -97 170 -20 242 13 13 37 27 53 32 16 5 482 8 1036 7 1000 -2 1007
-2 1034 -23z m-2308 -811 c64 -48 88 -122 58 -184 -9 -19 -181 -201 -384 -406
-348 -353 -369 -372 -410 -379 -71 -10 -109 19 -325 248 -208 220 -227 248
-213 322 8 43 45 89 86 106 18 7 52 10 83 8 l52 -5 148 -154 149 -154 291 297
c161 164 306 305 322 313 38 20 108 14 143 -12z m1340 -401 c90 -65 86 -196
-8 -255 -35 -22 -38 -22 -560 -22 -512 0 -526 1 -560 21 -107 62 -107 205 1
262 l43 23 526 -3 525 -3 33 -23z"/>
</g>
</svg>
