<?xml version="1.0" standalone="no"?>
<!DOCTYPE svg PUBLIC "-//W3C//DTD SVG 20010904//EN"
 "http://www.w3.org/TR/2001/REC-SVG-20010904/DTD/svg10.dtd">
<svg version="1.0" xmlns="http://www.w3.org/2000/svg"
 width="512.000000pt" height="512.000000pt" viewBox="0 0 512.000000 512.000000"
 preserveAspectRatio="xMidYMid meet">
<metadata>
Created by potrace 1.14, written by Peter Selinger 2001-2017
</metadata>
<g transform="translate(0.000000,512.000000) scale(0.100000,-0.100000)"
fill="#000000" stroke="none">
<path d="M1665 4723 c-16 -2 -67 -13 -113 -23 -362 -85 -625 -364 -732 -778
-34 -132 -320 -1770 -330 -1891 -15 -187 9 -365 71 -520 115 -288 366 -494
721 -591 106 -29 1763 -319 1896 -332 192 -19 412 15 568 87 266 123 460 369
549 698 20 76 266 1442 320 1781 21 129 21 345 0 454 -40 207 -115 352 -260
497 -145 145 -317 240 -536 294 -80 19 -1575 286 -1778 316 -88 14 -303 18
-376 8z m633 -973 c68 -41 92 -132 53 -196 -12 -20 -117 -100 -283 -216 -144
-102 -273 -190 -285 -196 -30 -16 -89 -15 -126 3 -30 14 -135 149 -179 229
-46 84 10 198 102 207 66 6 84 -1 132 -51 30 -31 53 -48 61 -44 7 4 95 66 196
137 102 71 194 133 205 137 37 15 90 11 124 -10z m942 -450 c306 -53 529 -97
550 -107 120 -61 97 -244 -34 -268 -33 -7 -1037 166 -1089 187 -33 13 -72 61
-81 101 -18 77 45 160 134 176 3 1 237 -39 520 -89z m-1173 -890 c18 -10 40
-31 49 -46 25 -37 24 -116 -2 -152 -22 -30 -519 -385 -571 -408 -83 -37 -133
-10 -225 120 -91 128 -105 163 -90 215 23 73 96 120 170 106 26 -5 50 -21 83
-55 l46 -49 143 100 c276 194 268 189 319 189 28 0 58 -8 78 -20z m962 -451
c382 -67 522 -95 542 -110 40 -28 61 -66 61 -113 2 -83 -58 -146 -138 -146
-70 0 -1054 178 -1081 195 -13 9 -33 30 -44 48 -26 41 -22 126 7 158 30 34 76
59 109 59 16 0 261 -41 544 -91z"/>
</g>
</svg>
